<svg id="visual" viewBox="0 0 675 900" width="675" height="900" xmlns="http://www.w3.org/2000/svg" xmlns:xlink="http://www.w3.org/1999/xlink" version="1.1"><rect x="0" y="0" width="675" height="900" fill="#fff"></rect><defs><linearGradient id="grad1_0" x1="0%" y1="100%" x2="100%" y2="0%"><stop offset="30%" stop-color="#ffffff" stop-opacity="1"></stop><stop offset="70%" stop-color="#ffffff" stop-opacity="1"></stop></linearGradient></defs><defs><linearGradient id="grad2_0" x1="0%" y1="100%" x2="100%" y2="0%"><stop offset="30%" stop-color="#ffffff" stop-opacity="1"></stop><stop offset="70%" stop-color="#ffffff" stop-opacity="1"></stop></linearGradient></defs><g transform="translate(675, 900)"><path d="M-393.7 0C-365.6 -28.2 -337.5 -56.5 -322.6 -86.4C-307.7 -116.4 -306 -148.1 -289.3 -167C-272.5 -185.9 -240.8 -192.1 -227.7 -227.7C-214.6 -263.3 -220.1 -328.4 -196.9 -341C-173.7 -353.6 -121.7 -313.9 -84.1 -313.9C-46.5 -314 -23.3 -353.9 0 -393.7L0 0Z" fill="#0092d6"></path></g><g transform="translate(0, 0)"><path d="M393.8 0C396.1 37.3 398.4 74.6 378.6 101.5C358.9 128.3 317 144.8 297.9 172C278.8 199.2 282.5 237.3 270.1 270.1C257.8 302.9 229.5 330.6 196.9 341C164.3 351.4 127.5 344.7 94 350.6C60.4 356.6 30.2 375.2 0 393.8L0 0Z" fill="#0092d6"></path></g></svg>
